<?xml version="1.0" encoding="UTF-8"?><svg id="_レイヤー_3" xmlns="http://www.w3.org/2000/svg" viewBox="0 0 1000 1000"><defs><style>.cls-1{fill:#231815;}</style></defs><path class="cls-1" d="m295.89,400.78c-2.62-2.67-1.72-6.97-2.06-10.39-.21-13.86.35-27.71.54-41.57-.09-48.68.47-97.37,3.05-145.98-.46-4.13.6-9.56,5.96-8.68,3.02.55,4.61,3.85,3.93,6.68-.03,8.06-.61,16.1-1.19,24.13-1.14,17.58-.44,35.21-1.11,52.8-1.58,27.89-.21,55.83-1.01,83.74-.26,9.03-.31,18.07-.31,26.47,0,2.92.07,5.88.44,8.78.52,4.24-5.2,6.98-8.24,4.01Z"/><path class="cls-1" d="m343.71,333.3c-4.14-43.72.15-87.58-.07-131.38.24-5.25,8.11-6.33,9.64-1.24.47,1.61.08,3.29.2,4.93.07,30.98-1.82,62.59-1.78,93.46.23,11.21,1.09,22.41,1.9,33.59.37,6.39-9.36,7.14-9.89.64Z"/><path class="cls-1" d="m293.54,401.32c-2.77-7.39,7.55-8.22,12.19-10.5,3.93-2.42,11.4-4.05,12.15,2.37.31,4.96-4.79,4.98-8.07,6.65-5.06,1.04-12.55,7.87-16.27,1.47Z"/><path class="cls-1" d="m314.14,396.29c-3.22-3.19-1.18-6.22,1.2-9.05,4.24-7.97,10.21-14.81,14.73-22.61,5.84-9.18,9.24-19.71,14.93-28.89,2.81-3.31,8.64-1.45,8.86,2.95.19,1.55-.52,3-1.65,3.99-3.99,8.05-7.4,16.41-12.02,24.16-3.96,7.65-10.17,15.23-14.54,22.28-2.13,4.11-6.2,11.41-11.52,7.17Z"/><path class="cls-1" d="m318.39,390.7c-2.7-.13-4.78-2.59-4.63-5.26-.05-8.21.11-16.41.37-24.62.3-19.13.64-38.25.59-57.38-.63-33.95-1.09-67.9.2-101.84.44-6.58,10.58-5.74,9.89.95-2.06,48.46.72,96.77-.59,145.18-.05,9.65-.38,19.29-.54,28.94-.46,4.92,2.18,13.96-5.28,14.04Z"/><path class="cls-1" d="m304.02,204.93c-4.85-.83-5.37-8.18-.61-9.56,5.23-.19,16.53-4.92,18.04,2.22.7,3.56-2.48,6.22-5.89,6.07-3.85.31-7.69,1.41-11.54,1.28Z"/><path class="cls-1" d="m345.42,205.81c-7-1.1-13.69-3.99-20.89-3.87-2.15-.33-4.04,1.11-6.18.32-3.47-.98-5.23-5.54-2.6-8.28,4.94-4.83,28.31.23,33.75,3.66,2.86,3.07.12,8.67-4.08,8.17Z"/><path class="cls-1" d="m107.8,565.02c-5.49-4.21.85-9.7,3.67-13.41,10.75-15.45,22.54-29.99,32.41-45.94,12.41-17.96,23.82-36.73,37.19-53.95,17.32-26.98,36.24-52.99,55-78.99,11.38-13.54,21.68-27.91,33.25-41.31,6.48-9.81,14.88-18.12,21.77-27.57,3.47-5.27,11.87.18,8.21,5.54-1.46,2.23-3.04,4.39-4.8,6.39-7.84,8.25-14.13,17.75-21.29,26.56-7.65,8.79-14.85,17.92-21.68,27.36-16.45,19.35-30.09,40.89-44.74,61.62-8.97,11.4-15.7,24.3-24.72,35.62-9.3,11.87-16.45,25.2-25.31,37.4-8.62,13.47-17.83,26.47-27.49,39.22-4.05,6.46-8.72,12.51-13.48,18.47-.75,3.34-5.19,4.93-7.99,2.99Z"/><path class="cls-1" d="m109.93,569.53c-5.74-.74-6.37-9.1-.44-10.09,12.46-1.48,24.82-4.6,36.54-9.09,40.62-13.97,81.55-27.1,121.42-43.21,5.79-2.81,10.21,6.09,4.33,8.91-32.1,12.51-64.32,24.74-97.3,34.74-21.01,7.6-42.35,16.1-64.55,18.74Z"/><path class="cls-1" d="m270.49,515.39c-4.5-3.34-.74-7.83,1.51-11.29,5.45-8.84,11.69-17.19,18.27-25.22,6.53-9.7,14.42-18.26,21.83-27.27,4.97-7.09,10.59-13.63,16.45-19.98,9.33-11.43,17.91-23.46,27.48-34.71,7.37-11.11,17.18-20.12,25.64-30.32,5.58-8.01,12.99-14.44,19.07-22.04,9.02-12.78,20.18-23.78,29.64-36.23,13.59-14.47,26.15-29.84,39.71-44.35,36.18-40.4,75.92-77.79,109.2-120.66,2.18-3.89,8.31-6.76,10.9-1.67,1.16,2.4.15,5.19-2.07,6.49-3.04,3.77-5.64,7.85-8.88,11.46-27.88,33.58-58.95,64.29-88.34,96.53-30.22,32.3-59.42,65.53-87.03,100.04-8.05,7.83-14.38,17.1-22.01,25.29-8.27,7.97-14.75,17.39-21.9,26.32-7.84,8.91-14.47,18.74-21.91,27.96-11.44,12.36-21.07,26.17-32.32,38.7-7.31,10.56-15.92,20.14-22.86,30.97-3.26,4.08-5.72,13.6-12.39,9.99Z"/><path class="cls-1" d="m346.37,269.65c-1.45-3.65,1.75-6.73,5.13-7.4,5.07-1.86,9.93-4.21,14.68-6.78,27.09-15.69,54.19-31.35,80.89-47.7,26.62-16.91,54.13-32.39,81.83-47.45,17.34-9.46,34.72-21.18,53.22-27.89,8.93-1.17,9.58,12.97.1,10.22-54.19,27.58-106.14,58.92-158.06,90.42-16.71,10.34-33.96,19.65-50.82,29.72-5.96,3.49-12.23,6.47-18.72,8.85-2.42,2.7-7.32,1.5-8.25-2,0,0,0,.02,0,.02Z"/><path class="cls-1" d="m350.08,256.17c-3.19-1.52-3.73-6.22-.87-8.39,2.57-1.82,5.63-2.75,8.52-3.94,7.11-3.15,13.94-6.94,20.88-10.46,22.16-13.03,44.2-26.28,66.88-38.35,13.91-7.94,26.5-18,40.76-25.35,16.48-10.53,33.74-19.52,51.37-27.87,14-6.68,27.74-15.36,43.28-17.69,9.72-2.44,9.41,6.62,9.96,13.54.3,2.68-2.03,5.09-4.62,5.26-4.96.32-5.54-4.99-5.63-8.72-12.41,2.34-23.36,9.37-34.79,14.45-12.98,6.84-26.39,12.8-39.12,20.14-15.21,9.39-30.71,17.96-45.35,28.14-7.88,5.24-16.26,9.56-24.67,13.87-7.43,4.66-14.82,9.35-22.71,13.23-15.05,8.91-30.04,17.96-45.68,25.81-3.86,2.04-7.93,3.51-11.93,5.24-1.51,1.66-4.32,2.1-6.28,1.08Z"/><path class="cls-1" d="m583.9,147.3c-3.25-2.67-1.28-8.59,2.98-8.64,2.93-.02,5.86-.06,8.79-.15-.56-5.1-1.04-10.23-1.2-15.36-1.82-.62-3.68-1.14-5.52-1.66-.16.85-.28,1.7-.4,2.56,0,.07-.02.15-.03.22,2.96,10.04-12.31,11.52-9.95-.12.86-17.06,10.65-13.91,22.65-8.87,5.06,3.01,3.02,19.04,4.6,25.38.99,4.91-3.37,7.93-7.87,7.66-4.56-.24-10.05,1.53-14.06-1.02Z"/><path class="cls-1" d="m277.9,525.63c-2.33-1.79-4.17-4.11-6.25-6.18-3.54-1.3-4.76-6.26-1.76-8.76,3.52-3,7.69.17,10.04,3.07,1.78,2.38,4.85,3.89,5.61,6.81.98,4.1-4.23,7.65-7.63,5.05Z"/><path class="cls-1" d="m279.52,523.51c-2.06-1.83-2.14-4.94-.4-7,9.66-11.41,19.37-22.79,29.05-34.18,9.71-11.43,19.42-22.86,29.14-34.29,10.41-12.26,20.83-24.51,31.24-36.77,10.9-12.83,21.79-25.65,32.69-38.47,10.22-12.03,20.44-24.06,30.66-36.09,9.99-11.76,19.98-23.52,29.97-35.28,10.74-12.64,21.48-25.28,32.23-37.92,10.21-12.01,20.41-24.02,30.62-36.03.45-.54.9-1.07,1.36-1.61,0,0,.01-.02.02-.02,8.32-9.84,16.68-19.64,25.03-29.45,9.37-11.04,18.75-22.07,28.13-33.11,2.05-2.41,4.1-4.82,6.14-7.23,1.75-2.06,5.02-2.16,6.99-.4,2.05,1.83,2.14,4.94.4,6.99-6.6,7.77-13.19,15.53-19.8,23.3-10.83,12.74-21.67,25.49-32.5,38.24-2.36,2.78-4.73,5.55-7.08,8.33-.01.01-.02.02-.03.04-9.59,11.29-19.18,22.58-28.77,33.86-11.12,13.08-22.24,26.17-33.36,39.25-9.65,11.36-19.3,22.71-28.95,34.07-10.39,12.23-20.78,24.45-31.16,36.68-10.67,12.56-21.34,25.11-32,37.66-10.51,12.38-21.03,24.75-31.55,37.13-10.02,11.79-20.04,23.58-30.05,35.37-9.85,11.59-19.7,23.18-29.54,34.77-.45.52-.89,1.04-1.33,1.57-.03.04-.07.09-.11.13,0,0,0,0-.01.01-.01.01-.02.03-.04.04-.93,1.09-2.29,1.64-3.66,1.64-1.2,0-2.41-.42-3.33-1.24Z"/><path class="cls-1" d="m115.76,579.82c-2.96-3.19-2.57-8.29-2.49-12.35,1.84-6.93,11.3-3.92,9.82,2.8,8.87-3.85,18.29-5.79,27.7-7.81,17.21-5.53,34.55-10.53,51.94-15.51,23.42-6.74,45.59-17.05,68.76-24.5,2.25-.94,4.44-2.08,6.75-2.86,6.09-1.97,9.28,7.27,3.12,9.4-6.26,2.78-12.63,5.22-19.22,7.12-12.47,4.23-24.56,9.42-36.87,14.05-19.92,6.97-40.57,11.72-60.57,18.35-9.11,3.49-18.78,4.95-28.19,7.38-6.59,1.12-14.47,8.45-20.77,3.92Z"/><path class="cls-1" d="m824.94,465.92c-7.39-.27-14.78-.55-22.17-.82-15.84-.59-31.68-1.17-47.52-1.75-18.43-.68-36.85-1.35-55.27-2.04-18.66-.69-37.33-1.37-55.99-2.06-18.48-.68-36.96-1.36-55.43-2.04-19.46-.72-38.92-1.43-58.38-2.15-17.56-.65-35.11-1.3-52.67-1.94-17.55-.65-35.09-1.29-52.64-1.94-17.38-.64-34.76-1.28-52.14-1.92-7.44-.28-14.88-.5-22.32-.82-2.7-.12-4.81-2.56-4.67-5.22.15-2.72,2.53-4.78,5.23-4.67,12.01.52,24.03.89,36.05,1.33,17.45.64,34.89,1.28,52.34,1.92,18.04.67,36.08,1.33,54.13,1.99,17.76.65,35.52,1.31,53.28,1.96,19.35.71,38.7,1.43,58.06,2.14,18.66.68,37.32,1.37,55.99,2.06,18.44.68,36.87,1.36,55.31,2.04,18.25.67,36.5,1.34,54.75,2.02,13.03.48,26.07.96,39.11,1.44,5.18.19,10.36.39,15.53.58,2.7.1,4.81,2.57,4.67,5.22-.15,2.67-2.43,4.67-5.04,4.67-.06,0-.12,0-.18,0Z"/><path class="cls-1" d="m883.21,495.46c-7.81-9.66-15.63-19.32-23.44-28.98-11.04-13.64-22.07-27.29-33.11-40.94-10.61-13.13-21.23-26.25-31.85-39.38-10.6-13.11-21.21-26.22-31.81-39.33-10.64-13.15-21.28-26.31-31.92-39.46-10.3-12.72-20.59-25.46-30.89-38.18-10.72-13.26-21.44-26.51-32.16-39.77-9.76-12.07-19.52-24.14-29.29-36.21-9.91-12.25-19.81-24.49-29.71-36.74-2.93-3.62-5.9-7.22-8.79-10.87-1.67-2.11-1.56-5.18.55-6.98,1.99-1.71,5.31-1.57,6.98.54,3.49,4.41,7.07,8.74,10.61,13.12,4.35,5.37,8.7,10.75,13.04,16.13,10.16,12.57,20.32,25.13,30.49,37.7,10.74,13.27,21.47,26.55,32.21,39.82,10.43,12.89,20.86,25.79,31.29,38.68,10.66,13.17,21.31,26.35,31.97,39.53,10.68,13.2,21.36,26.41,32.04,39.62,10.46,12.92,20.91,25.85,31.37,38.77,10.94,13.52,21.88,27.04,32.81,40.56,10.44,12.91,20.88,25.81,31.32,38.72,1.94,2.4,3.89,4.81,5.83,7.21,1.69,2.09,1.55,5.19-.55,6.98-.91.78-2.08,1.17-3.25,1.17-1.41,0-2.81-.57-3.74-1.72Z"/><path class="cls-1" d="m876.4,500.7c-5.23-8.32,17.22-15.51,16.88-4.98-.14,3.2-3.22,4.89-6.14,4.68-3.54,1.24-7.87,4.68-10.75.3Z"/><path class="cls-1" d="m873.42,501.2c-5.9-.68-9.88-5.18-13.76-9.19-12.29-10.46-19.76-24.83-30.39-36.75-7.81-9.01-13.99-18.73-22.54-26.88-7.54-8-12.73-17.88-20.91-25.34-5.93-5.72-10.17-12.86-15.77-18.86-4.22-4.37-8.45-8.75-11.97-13.72-6.72-10.46-15.98-18.85-23.55-28.64-17.45-20.64-36.41-40.18-51.11-62.96-12.96-15.28-25.72-30.72-38.41-46.24-5.76-7.32-13.29-13.02-18.9-20.47-3.29-4.46-6.21-9.16-9.56-13.58-8.17-9.92-15.77-20.24-22.87-30.95-2.51-4.18-10.06-8.57-4.99-13.54,7.26-7.07,19.7,19.41,24.27,24.03,5.24,6.83,10.94,13.32,15.77,20.46,5.48,9.34,13.61,16.38,20.88,24.23,17.16,21.45,36.5,41.65,51.53,64.55,17.04,20.69,34.65,40.84,52.12,61.16,8.37,8.35,13.81,19.05,22.37,27.22,7.95,8.28,13.78,17.77,22.16,25.49,4.25,4.48,7.67,9.63,11.24,14.66,6.82,8.26,14.8,15.52,20.83,24.45,6.06,7.91,13.02,15.12,18.7,23.32,3.65,5.64,7.58,11.08,12.4,15.81,4.85,3.81,8.27,10.41,14.37,12.03,6.23,1.14,4.53,10.95-1.9,9.72Z"/><path class="cls-1" d="m558.32,226.72c-6.8-1.15-19.21,2.05-23.55-4.05-2.33-4.77,3.4-8.74,7.65-6.45,8.1.56,16.25.54,24.37.8,6.66.8,26.45-4.9,26.87,5.09-.56,5.9-6.85,4.49-10.97,3.95-8.11.49-16.24,1.27-24.37.66Z"/><path class="cls-1" d="m596.22,239.41c-15.39,1.44-13.61-6.83-12.51-18.85,1.18-3.96,6.92-4.71,8.98-1.13,1.8,3.03-.16,6.7.37,10.06,2.02-.04,4.04.03,6.06.13-1.63-12.06,12.05-8.54,19.67-9.33,7.04-.36,14.03.45,20.93,1.84,3.19.27,5.43,3.56,4.39,6.59-2.72,6.38-10.29,1.56-15.29,1.68-6.58-.59-13.21-.03-19.81.01.2,8.13-5.84,9.98-12.77,9Z"/><path class="cls-1" d="m550.11,213.49c-6.32-1.33-4.45-10.91,1.9-9.73,11,1.05,21.97-2.4,33.05-1.28-.41-12.57-1.92-25.05-1.34-37.66.03-4.3,6.08-6.25,8.7-2.91,2.56,4.49.6,11.28,1.18,15.82-.05,9.54,1.89,18.94,1.34,28.5-.56,8.94-11.81,5.5-17.79,5.99-9,.2-18.04,2.81-27.03,1.26Z"/><path class="cls-1" d="m606.95,212.18c-5.56.39-7.23-5.04-7.07-9.63-.31-7.01-.61-14.02-1.15-21.01-1.36-5.89,4.94-10.92,9.15-5.52.96,1.43,1.47,3.28.75,4.99.49,7.08.86,14.15,1.18,21.24,4.87-.28,9.75-.41,14.63-.35,6.43.43,5.83,10.15-.61,9.89-5.63-.1-11.24.34-16.87.41Z"/><path class="cls-1" d="m347.7,520.63c-6.83-7.63-12.29-16.34-19.44-23.7-2.35-2.8-4.63-5.65-6.98-8.46-1.86-.83-2.91-2.8-2.84-4.8-.3-5.29,6.86-7.18,9.51-2.7,9.31,10.9,18.24,22.15,27.26,33.21,4.21,4.8-3.34,11.34-7.52,6.45Z"/><path class="cls-1" d="m912.9,535.51c-36.75-2.09-73.73-2.44-110.5-1.52-37.25.39-74.5-.74-111.73-2.12-44.7-1.61-89.37-3.16-134.07-4.89-27.4-.63-54.85.34-82.23-1.43-20.96-.48-41.96-.88-62.92-.16-13.84-.71-27.85.58-41.53-1.98-5.04-.41-10.05-.97-15.07-1.51-1.87.72-4.12.11-5.41-1.42-4.23-7.02,3.61-9.75,9.56-8.1,31.79,4.68,63.9,2.16,95.93,2.96,27.23.23,54.43,1.98,81.69,1.53,67.39,1.12,134.69,4.94,202.07,6.64,47,1.77,94.03-1.28,141,1.02,10.02.13,20.06-.31,30.05.72,4.28-.09,10.52,1.28,8.82,7-.82,2.45-3.3,3.67-5.68,3.26Z"/><path class="cls-1" d="m911.65,536.64c-3.87-.49-5.65-4.74-8.37-7.09-4.22-3.93-7.67-8.66-12.19-12.26-5.94-4.1-11.7-8.5-17.19-13.19-2.33-.43-4.04-2.86-3.89-5.19.58-6.01,8-5.44,11.11-1.68,8.63,7.48,18.76,13.06,25.95,22.09,3.03,2.92,5.81,6.06,8.65,9.15,2.93,3.07.09,8.62-4.08,8.17Z"/><path class="cls-1" d="m849.72,484.97c-1.32-.08-2.58-.71-3.44-1.72-.48-.56-.79-1.18-.97-1.84-4.81-3.67-9.54-9.15-14.04-12.59-3.54-3.15-11.62-6.87-7.21-12.45,3.65-4,7.91.27,10.87,2.79,4.53,3.35,8.63,7.21,12.66,11.14,2.53,2.85,7,4.54,7.38,8.77.58,3.14-2.08,6.12-5.24,5.9Z"/><path class="cls-1" d="m909.46,564.47c-7.66-1.15-3.37-10.61-4.01-15.78.14-4.81-.26-9.71.37-14.47,1.47-8.52,14.87-3.64,9.6,3.6-1.06,6,3,27.41-5.97,26.65Z"/><path class="cls-1" d="m350.68,550.62c-6.3-1.5-3.08-9.11-3.57-13.68.13-4.36.19-8.71.19-13.06.03-4.3,6.08-6.24,8.71-2.91,2.64,5.1.53,11.68.97,17.31-.17,4.68.76,13.29-6.3,12.34Z"/><path class="cls-1" d="m297.08,556.7c.02-13.57-.26-27.14.2-40.71.47-4.61-.57-9.82,1.52-14.06,2.5-3.69,8.51-2.28,9.08,2.14-.48,5.5-.78,11.06-.83,16.64-.34,11.71-.05,23.78-.09,35.36.3,6.44-9.44,7.1-9.89.64Z"/><path class="cls-1" d="m300.62,564.99c-4.13-1.26-4.49-7.37-.57-9.16,2.33-1.07,4.63-2.21,7.01-3.16,11.94-4.94,23.96-9.65,36.28-13.55,2.54-.89,5.42.61,6.26,3.14.86,2.6-.59,5.36-3.14,6.26-7.44,2.44-14.84,5-22.16,7.79-5.35,2.34-10.84,4.32-16.17,6.68-2.37.99-4.82,2.93-7.5,2Z"/><path class="cls-1" d="m845.31,565.05c-76.92-.98-153.64-7.19-230.53-9.54-39.79-.7-79.59-1.62-119.32-3.85-39.29-.04-78.71,1.25-117.94-1.11-9.86-.49-19.76-1.45-29.54-2.37-5.6-1.85-3.54-10.83,2.63-9.55,44.35,4.24,88.99,3.5,133.52,3.22,21.53-.64,42.96,2.17,64.5,2.16,38.56,1.35,77.13,1.5,115.67,3.58,78.98,3.52,157.93,9.27,237.05,7.31,1.73,0,3.47-.08,5.17,0,4.24.03,6.29,6.08,2.91,8.7-4.28,2.52-10.02.61-14.82,1.24-16.43.36-32.87.19-49.31.2Z"/><path class="cls-1" d="m280.24,840.27c-2.7-.15-4.78-2.58-4.62-5.26,0-7.47-.03-14.94.03-22.41.29-29.9,2.6-59.72,3.87-89.58.97-36.83.06-73.28-.1-109.97.28-28.99,1.79-57.95,1.9-86.95.03-4.28,6.08-6.27,8.7-2.91,2.24,2.99.76,7.12,1,10.59-.17,7.71-.14,15.43-.2,23.14-.63,23.86-1.91,48.65-1.51,72.36,1.29,49.47.61,98.94-2.72,148.31-.37,10.02-.69,20.03-.97,30.05-.21,9.33-.12,18.67-.12,28.01,0,2.7-2.69,4.79-5.26,4.63Z"/><path class="cls-1" d="m140.13,808.43c-2.78-.15-4.71-2.53-4.66-5.23v-.2c0-.05,0-.1,0-.15.26-17.6.57-35.2.85-52.8.29-18.2.59-36.4.88-54.6.3-18.7.6-37.41.9-56.11.29-17.83.57-35.66.86-53.49.06-3.71.11-7.41.18-11.11,0-.03,0-.06,0-.08,0-.04,0-.07,0-.11,0-.03,0-.05,0-.08,0-.12,0-.24,0-.36.04-2.7,2.61-4.81,5.23-4.66,2.78.15,4.71,2.53,4.66,5.23-.29,17.49-.57,34.99-.85,52.49-.3,18.21-.59,36.43-.88,54.65-.29,18.13-.59,36.27-.88,54.4-.3,18.93-.61,37.86-.91,56.79-.06,3.59-.12,7.18-.17,10.77-.04,2.61-2.45,4.67-4.97,4.67-.08,0-.17,0-.26,0Z"/><path class="cls-1" d="m278.85,847.89c-27.01-5.21-53.99-10.81-80.17-19.38-19.75-5.58-39.98-10.81-58.77-18.63-4.65-4.57,1.22-10.75,6.63-8.17,15.89,6.5,32.45,11.18,49.06,15.57,14.64,4.33,29.19,8.95,44.09,12.38,14.39,3.27,28.97,6.35,43.48,8.69,6.7,2.73,2.29,12.09-4.31,9.54Z"/><path class="cls-1" d="m279.58,848.62c-1.96-1.48-2.8-4.01-1.68-6.29,3.1-5.29,13.87-2.2,19.31-2.87,5.05.55,14.77-2.45,14.92,5.28-.63,6.25-8,4.32-12.36,4.62-4.84,0-9.69-.26-14.52-.01-1.9.11-4,.53-5.66-.72Z"/><path class="cls-1" d="m340.45,876.83c-14.35-5.85-29.02-10.92-43.08-17.44-2.55-.16-5.14-1.06-6.27-3.55-.74-2.36-1.23-4.75-1.65-7.19.67-7.9,10.96-6.45,10.55,1.2,14.34,6.27,29.02,11.82,43.6,17.58,6.11,2.12,2.98,11.39-3.15,9.39Z"/><path class="cls-1" d="m345.16,877.96c-4.52-.19-6.6-6.87-3.17-9.71,3.25-2.32,7.6-1.03,11.35-1.45.14-1.25.27-2.5.38-3.75-3.9.14-9.77.79-10.18-4.54-.17-2.63,1.93-5.18,4.62-5.26,3.63-.02,7.29-.18,10.91-.22,8.3,1.46,3.8,12.52,3.6,18.23-1.21,6.66-8.92,5.28-13.97,5.51-.99.81-2.28,1.28-3.54,1.2Z"/><path class="cls-1" d="m348.84,864.33c-14.39-2.81-28.64-8.3-41.7-14.53-2.87-3.17-.19-8.53,4.09-8.18,9.8,2.48,19.75,8.37,29.37,10.6,4.54,1.98,13.45.77,13.5,7.49-.16,2.64-2.6,4.89-5.26,4.63Z"/><path class="cls-1" d="m340.29,869.75c-.34-3.29-.62-6.58-.62-9.9.26-6.39,10.39-5.77,9.89.63,0-.1,0-.2,0-.3.01,2.98.31,5.97.62,8.93.5,6.38-9.48,7.06-9.89.64Z"/><path class="cls-1" d="m391.76,874.36c16.63.73,33.21,1.44,49.35-1.72.35-3.98-.58-8.17.67-12.02-19.32,1.84-38.77.57-58.15.89.04.37.08.74.11,1.12,6.07.68,8.46,6.17,7.64,11.7.12,0,.25.02.37.03Zm11.82,10.41c-6.05-.61-16.22,1.14-20.78-3.1-2.19-2.65-1.09-6.26-1.29-9.41-7.96-.62-7.6-8.31-8.24-14.39-.65-4.04,3.04-6.55,6.74-6.24,13.29,0,26.58.07,39.23.06,11.08.89,22.26-2.35,33.19-1.01,8.6,3.45,7.04,12.62-1.39,15.16.58,10.09-.02,15.72-11.31,17.47-11.97,1.25-24.09,1.56-36.14,1.45Z"/><path class="cls-1" d="m374.43,856.86c-10.42-4.49-12.71-22.79-.71-26.76-1.6-4.79-.45-10.57,5-12.04-1.77-9.37,9.43-15.05,17.44-13.69,6.21-5.43,16.59-8.81,21.83-.33,4.98-3.65,11.97-3.11,15.26,2.43,4.94-1.47,10.84.37,13.05,5.28,6.3-1.07,11.84,4.64,11.17,10.85,3.62,2.46,4.23,7.59,2.39,11.34,8.9,10.88-5.32,27.9-11.84,18.44-2.71-6.51,5.26-5.67,4.76-10.44,0,.21,0,.43,0,.64-.54-4.59-6.7-6.87-2.42-12.17-4.19-1.02-4.65-5.64-2.77-8.82-5.04,1.06-10.14.53-10.33-5.66,0,0,0,0,0,0-5.82,1.26-9.24,1.77-12.47-4.24-4.08,1.93-9.58,7.5-13.35,2.05-2.02-8.06-4.68-4.53-9.71-1.2-1.96,1.53-5.06,2.73-7.28,1.62-1.98-.36-4.35.68-5.97,1.83,0,0,0,0,0,0,.77,4.78.91,10.48-5.24,11.15,5.41,18.93-14.96,6.18-5.39,20.3,10.19-.75,6.68,13.47-3.43,9.41Z"/><path class="cls-1" d="m455.29,867.36c-8.49,1.45-10.3-10.01-1.42-10.25,25.05.99,49.65.41,74.47-2.03,6.17-.52,12.35-.39,18.53-.41,2.91.13,6.29-.9,8.73,1.18,3.23,2.66,1.29,8.6-2.98,8.64-16.05-.51-31.23,1.38-47.11,2.27-16.74.84-33.52.55-50.22.6Z"/><path class="cls-1" d="m336.23,851.5c-1.29-24.94.09-49.99,1.3-74.92.68-29.31,1.59-58.62,2.32-87.94-1.19-43.4,5.66-86.55,4.91-129.87.04-3.78-.04-7.58.43-11.34,1.05-8.04,13-4.48,9.66,2.87.43,31.15-2,62.24-4.35,93.31-.7,43.26-1.99,86.5-2.84,129.76-1.43,21.48-1.92,43.04-2.09,64.57-.06,4.32.38,8.62.54,12.92.33,6.33-9.43,7.19-9.89.64Z"/><path class="cls-1" d="m363.25,619.45c-8.35-1.13-3.24-15.73-3.55-21.52,1.01-8.42,1.34-16.86,1.32-25.33-.48-5.26,3.02-9.27,6.32-12.93,3.91-4.59,13.74-16.82,17.89-6.46.81,3.91-2.88,5.14-5.15,7.29-4.21,4.75-10.44,8.97-9.26,16.02.16,8.86-.79,17.65-1.67,26.46-1.48,5.37,2.31,16.14-5.9,16.48Z"/><path class="cls-1" d="m349.73,645.3c-6.4.56-7.04-9.51-.64-9.88,5.7.05,16.88-4.63,18.46,3.53.12,8.07-12.39,4.54-17.82,6.36,0,0,0,0,0,0Z"/><path class="cls-1" d="m352.92,620.95c-5.65-.29-6.18-8.76-.63-9.81,4.57-.73,12.3-3.08,13.08,3.56.38,4.78-4.92,5.55-8.42,5.68-1.39.12-2.83.69-4.03.57Z"/><path class="cls-1" d="m360.71,641.26c-.21-4.79,1.48-9.56,1.85-14.36,1.53-7.49-1.37-16.13,3.84-22.47,7.55-9.99,13.1-21.33,21.13-30.95,9.47-9.77,19.58-19.64,31.86-25.79,2.42-1.19,5.45-.11,6.61,2.31,1.97,4.11-1.95,6.77-5.25,8.18-10.32,6.31-19.5,14.8-27.44,23.88-7.03,9.54-12.77,19.95-19.74,29.54-1.08,6.65-.23,13.88-1.77,20.66-1.23,3.87-.07,8.86-2.91,11.94-2.88,2.52-7.53.77-8.18-2.94Z"/><path class="cls-1" d="m354.54,860.09c-.39-46.57-.1-93.17,2.22-139.69.95-23.1,4.03-46.05,3.5-69.2.16-4.6-.09-9.3.7-13.84,1.4-4.72,8.71-4.24,9.56.63-.96,58.66-7.13,117.26-6.19,176.05,0,12.39-.01,24.77,0,36.52-.44,4.1,1.33,8.95-1.16,12.51-2.66,3.21-8.6,1.3-8.64-2.98Z"/><path class="cls-1" d="m296.42,841.4c-3.34-37.59.46-75.31,1.16-112.95,1.97-51.97,2.64-103.98,6.02-155.86.59-5.22-1.54-11.35,1.31-15.98,2.59-2.93,7.67-1.67,8.58,2.19.41,18.84-1.14,37.87-2.62,56.72-1.34,55.32-3.16,110.62-5.27,165.93-.88,19.79-1.1,39.58.69,59.32.33,6.33-9.42,7.19-9.89.64Z"/><path class="cls-1" d="m332.47,765.98c-10.08-6.3-22.09-7.84-31.16-14.86-2.28-3.38.51-8.11,4.57-7.78,3.87.65,7,3.53,10.69,4.8,4.7,2.4,23.65,7.94,24.11,12.58.91,4.56-4.43,7.38-8.21,5.26Z"/><path class="cls-1" d="m359.21,763.28c-3.9-1.89-3.51-7.82.62-9.16,2.7-.73,5.75-.18,8.55-.36,12.79.13,24.75-.64,37.41-.95,25.61-.11,51.14-2.08,76.71-3.03,4.25-.52,6.98,5.2,4.01,8.24-4.05,3.3-10.21,1.3-15.09,2.08-14.21.4-28.37,1.93-42.59,2.12-23.16-.2-46.68,2.46-69.63,1.06Z"/><path class="cls-1" d="m316.44,846.33c-4.94-.95-3.83-6.3-3.82-9.99.01-7.68-.05-15.36-.07-23.04-.02-14.03,0-28.06,0-42.09.26-6.38,10.4-5.79,9.89.64.02,17.93-.06,35.52.06,53.27-1.05,5.98,3.68,22.14-6.06,21.21Z"/><path class="cls-1" d="m325.22,854.98c-1.95-26.36.42-52.81-.24-79.22.26-6.37,10.39-5.8,9.89.63.29,20.79-.44,41.57-.63,62.36,0,5.21.81,10.39.87,15.59.47,6.37-9.52,7.06-9.89.64Z"/><path class="cls-1" d="m458.89,851.16c-3.25-2.66-1.28-8.6,2.98-8.64,2.49,0,4.98.03,7.47-.09.82-19.36.99-38.73,1.39-58.1.09-7.05.07-14.11.46-21.16.26-2.48-.19-5.37,1.59-7.38,2.77-3.21,8.48-1.31,8.64,2.98-.08,2.55-.47,5.1-.45,7.67-.75,20.28-.36,40.6-1.17,60.88-.3,5.26-.57,10.53-.57,15.8.66,4.67-1.18,9-6.49,8.99-4.48-.11-9.9,1.57-13.85-.95Z"/><path class="cls-1" d="m376.19,808.73c-.44-15.38-.37-30.85.14-46.2,1.39-6.52,11.14-4.29,9.72,2.17-.09,14.46-.48,28.94.03,43.39.51,6.38-9.61,7.05-9.89.64Z"/><path class="cls-1" d="m391.7,804.43c.27-14.25-.77-28.74.87-42.88,2.43-6.43,11.61-2.64,9.44,3.67-.7,12.78-.34,25.83-.42,38.57.33,6.44-9.41,7.1-9.89.64Z"/><path class="cls-1" d="m413.68,806c-7.01-.9-3.98-9.75-4.77-14.59-.38-10.08-.67-20.19-.1-30.26,0-7.55,11.36-6.35,9.85,1-.48,9.82-.21,19.67.17,29.49-.31,4.94,2.4,14.28-5.15,14.36Z"/><path class="cls-1" d="m424.37,804.76c-.08-9.95.05-19.9-.07-29.85.92-5.66-3.4-17.53,4.54-18.83,2.93-.21,5.56,2.39,5.27,5.35-.12,8.43.21,16.87.14,25.3,0,5.31,0,11.74,0,16.74.07,1.54-.16,3.08-1.24,4.27-2.67,3.25-8.59,1.28-8.64-2.98Z"/><path class="cls-1" d="m440.78,809.48c.29-11.56-1.07-23.03-1.51-34.56-.11-3.66-.27-7.32-.36-10.98.29-6.2,9.82-5.89,9.89.12.21,11.4,1.18,22.77,1.77,34.16-.41,4.63,1.43,10.17-1.15,14.25-2.67,3.24-8.6,1.28-8.64-2.98Z"/><path class="cls-1" d="m462.31,848.43c-7.14-1.02-3.92-10.16-4.77-15.15-.59-23.21-2.73-46.38-2.83-69.61-1.47-10.08,9.79-12.4,10.61-3.71-.21,1.48-.94,2.74-.73,4.29.38,19.48,1.44,38.95,2.58,58.39.2,7.05.47,14.12.4,21.17-.09,2.71-2.64,4.8-5.26,4.63Z"/><path class="cls-1" d="m405.31,542.14c.55-5.87-3.53-20.84,5.55-20.74,3.35,0,5.63,4.03,4.2,6.96-.16,4.38-.13,8.78.13,13.15.47,6.38-9.51,7.05-9.89.64Z"/><path class="cls-1" d="m421.18,549.19c-6.55-.51-4.24-9.31-4.63-13.32.18-5.1-1.92-15.65,6.46-13.77,5.15,1.94,2.97,8.46,3.42,12.7-.48,4.95,2.33,14.33-5.25,14.4Z"/><path class="cls-1" d="m474.32,540.52c.5-5.41-2.14-15.96,5.84-16.3,7.67.87,3.04,11.01,4.04,15.67.3,6.46-9.44,7.09-9.89.64Z"/><path class="cls-1" d="m487.87,540.13c-.12-4.88-.14-9.77-.14-14.66,0-2.7,2.69-4.79,5.26-4.63,7.87,1.18,3.55,13.06,4.76,18.65.3,6.46-9.44,7.09-9.89.64Z"/><path class="cls-1" d="m544.49,547.53c-6.53-.69-4.25-8.63-4.61-13.15.17-2.85-.68-6.36,1.8-8.43,3.38-3.11,9.19.37,8.05,4.78.01-.02.02-.03.03-.05.03-.2.06-.41.08-.6-1.14,5.58,3.25,17-5.34,17.46Z"/><path class="cls-1" d="m557.88,547.48c-6.21-.58-4.38-7.94-4.61-12.28-.03-4.03-.89-10.68,4.73-11.05,6.6-.05,5.13,7.25,5.15,11.68-.04,4.41,1.21,11.8-5.27,11.64Z"/><path class="cls-1" d="m607.87,547.71c.91-6.04-3.37-23.13,5.84-22.79,3.37,0,5.64,4.06,4.19,6.99-.29,5.34-.2,10.41-.15,15.16.45,6.39-9.53,7.05-9.88.64Z"/><path class="cls-1" d="m625.36,549.38c-8-1.28-3.42-13.36-4.38-19.03.04-2.7,2.66-4.79,5.26-4.63,8.02,1.24,3.42,13.37,4.38,19.03-.04,2.7-2.66,4.79-5.26,4.63Z"/><path class="cls-1" d="m672.06,554.89c-7.64-1.26-3.72-11.52-4.56-16.9-.18-4.07.15-10.26,5.66-9.93,7.09.76,3.56,9.2,4.19,13.9-.28,4.66,1.73,13-5.29,12.94Z"/><path class="cls-1" d="m677.44,551.04c-.06-6.14-.15-12.29-.15-18.43,0-2.7,2.69-4.79,5.26-4.63,7.73.14,3.74,16.8,4.78,22.42.5,6.4-9.61,7.04-9.89.64Z"/><path class="cls-1" d="m719.82,536.84c.08-1.33.71-2.58,1.72-3.45,1.02-.87,2.23-1.18,3.54-1.18,2.7,0,4.79,2.69,4.63,5.26-.08,1.33-.71,2.58-1.72,3.45-1.02.87-2.23,1.18-3.54,1.18-2.7,0-4.79-2.69-4.63-5.26Z"/><path class="cls-1" d="m720.54,549.28c.25-5.91-2.26-15.73,1.5-20.4,2.56-2.27,6.91-1.07,7.93,2.2.49,5.78-.22,11.73.46,17.56.47,6.38-9.5,7.05-9.89.64Z"/><path class="cls-1" d="m731.41,550.43c-.03-6.23-.81-12.82.98-18.86,2.95-6.79,13.28-1.63,9.04,4.67-.38,4.5-.33,9.04-.14,13.55.45,6.39-9.53,7.05-9.89.64Z"/><path class="cls-1" d="m778.43,551.43c.51-5.68-4.51-21.2,3.64-21.8,8.46-.29,4.68,15.45,6.24,21.16.36,6.44-9.36,7.09-9.88.64Z"/><path class="cls-1" d="m792.55,558.29c-7.68-1.29-3.69-11.62-4.49-17.03-.22-5.66.62-17.07,8.98-11.88,1.6,1.42,2.05,3.86,1.26,5.8-.54,6.14-.45,12.33-.48,18.48-.02,2.7-2.68,4.79-5.26,4.63Z"/><path class="cls-1" d="m835.65,552.79c0-5.22-.04-10.45.26-15.66-.38-6.49,8.96-8.77,10.55-2.18-.1,3.35-1.29,6.4-.88,9.88-.43,3.59,1.03,7.88-1.29,10.94-2.67,3.25-8.59,1.28-8.64-2.98Z"/><path class="cls-1" d="m850.85,561.1c-2.79-.17-4.67-2.56-4.62-5.26.18-7.19.27-14.4.99-21.55-.35-7.26,10.22-8.43,10.29-.83-1.43,7.53-1.06,15.35-1.39,23.02-.05,2.7-2.66,4.79-5.26,4.62Z"/><path class="cls-1" d="m325.76,736.83c-8.44-.43-3.11-19.11-4.01-25.04.26-19.4,1.36-38.76,1.51-58.16.27-14.98-.02-29.97.06-44.94.95-6.05-2.95-20.39,3.85-22.78,4.62-1.79,9.18,3.68,6.04,7.7-.04,35.84.4,71.59-1.41,107.38-.07,8.28-.26,16.55-.71,24.82-.03,4.3.87,11.2-5.33,11.02Z"/><path class="cls-1" d="m331.8,594.14c-3.82-.15-5.66-4.63-4.11-7.83,2.33-4.36,8-2.96,12.09-3.54,2.69-.2,5.08,1.94,5.26,4.62.27,5.44-5.68,5.53-9.66,5.52-.99.83-2.29,1.31-3.57,1.23Z"/><path class="cls-1" d="m310.57,578.95c-1.76-3.53,1.31-7.42,5.08-7.25,8.95-.57,17.91-1.3,26.86-1.91,6.27-1.32,8.21,8.63,1.9,9.72-8.04.71-16.1,1.15-24.14,1.85-3.42.32-7.85,1.64-9.69-2.41Z"/><path class="cls-1" d="m369.09,579.01c-2.9-1.97-3.14-6.49-.08-8.45,3.97-1.94,8.78-.77,13.07-1.12,2.24-.05,4.5.02,6.74,0,4.31.03,6.24,6.08,2.91,8.7-4.85,2.61-11.14.56-16.51,1.24-1.83,1.24-4.49,1.24-6.13-.36Z"/><path class="cls-1" d="m468.89,582.91c-20.76-.81-41.43-3.95-62.25-3.54-4.12,0-8.23-.19-12.33-.51-2.77,1.22-5.9-.51-6.69-3.31.03.09.05.19.07.28.07.18.15.37.22.55-3.03-8.34,7.08-7.82,12.41-7.06,13.89.17,27.72-.02,41.49,2.06,9.01.56,18.05.73,27.03,1.63,2.95-.35,5.5,2.4,5.3,5.26-.12,2.7-2.6,4.79-5.26,4.63Z"/><path class="cls-1" d="m459.73,725.67c-.85-28.22-.53-56.6,1.71-84.76.86-20.34,4.44-40.69,2.82-61.05,0-2.21,1.92-4.14,3.99-4.55,4.8-.87,6.57,4.25,6.22,8.16.53,32.35-5.36,64.49-4.87,96.87-.42,14.96-.78,30.03.01,44.68.35,6.39-9.4,7.14-9.89.64Z"/><path class="cls-1" d="m433.29,723.07c-1.18-40.94-1.46-82.11,1.38-122.97-12.6.99-25.14-1.94-37.69-1.05-3.38.17-6.77.33-10.14.72-2.65,2.35-7.48.73-7.99-2.85-1.36-7.13,7.81-7.25,12.7-7.48,8.8-.53,17.69-.78,26.44.49,7.44,1.92,20.95-2.6,25.91,3.06,2.35,7.04-.87,15.81-.53,23.31-.81,24.72-.79,49.46-.9,74.2,0,8.61-.08,15.95.38,24.27-.16,3.7,1.5,8.1-.91,11.29-2.67,3.22-8.6,1.29-8.64-2.98Z"/><path class="cls-1" d="m325.93,737.06c-4.63-.14-6.31-6.67-2.39-9.09,5.07-1.64,16.68-5.58,17.07,2.97-.19,3.38-3.38,4.93-6.43,4.7-2.79.28-5.46,1.26-8.26,1.43Z"/><path class="cls-1" d="m362.94,735.73c-4.3-.03-6.25-6.08-2.91-8.71,4.55-2.47,10.41-.91,15.45-1.42,30.37-2.07,60.86-1.31,91.21-2.64,6.41.52,5.85,10.27-.63,9.88-14.54.65-29.11,1.42-43.69.77-19.76.17-39.8,2.04-59.43,2.11Z"/><path class="cls-1" d="m461.1,741.2c.2-4.95-1.12-10.47.77-15.11,2.27-3.65,8.24-2.38,8.97,1.82.19,4.2-.15,8.44.15,12.66.34,6.45-9.4,7.09-9.89.64Z"/><path class="cls-1" d="m329.57,755.02c-4.03.07-9.4-.17-10.21-5.12-.75-5.44-1.31-10.96-1.49-16.46.03-4.31,6.08-6.25,8.7-2.91,2.39,4.42,1.1,9.72,2.15,14.57,4.49.53,12.28-1.76,12.95,4.72.13,6.66-7.6,5.2-12.1,5.19Z"/><path class="cls-1" d="m362.31,753.83c-4.3-.03-6.25-6.08-2.91-8.7,3.59-2.42,9.44-.65,13.09-1.11,29.49-1.83,59.53-4.47,89.05-3.74,4.98-2.54,9.77,4.6,5.39,8.22-2.48,2.17-6.32,1.74-9.38,1.74-9.25,0-18.49-.03-27.74.13-22.55.34-44.93,4.22-67.5,3.47Z"/><path class="cls-1" d="m410.16,715c-6.89-.85-4.11-9.44-4.47-14.21.52-8.61.91-17.24,1.36-25.86,2.06-25.5.03-50.98-1.25-76.44-2.36-6.76,7.8-10.65,9.64-3.32,1.09,20.32,2.9,40.67,2.29,61.04-.35,13.8-1.15,27.59-1.98,41.37-1.34,5.62,2.95,16.93-5.58,17.42Z"/><path class="cls-1" d="m380.4,716.7c-2.77-.17-4.69-2.56-4.63-5.26.23-9.29,1.29-18.54,2.12-27.79.97-9.7,1.2-19.44,1.3-29.18-.03-15.03-.35-30.07.87-45.06.68-4.09-.16-9.28,2.95-12.44,3.32-2.81,8.89-.3,8.54,4.13-5.54,31.14-.11,63.51-4.83,95.02-.48,5.32-.93,10.62-1.06,15.96-.06,2.7-2.65,4.79-5.26,4.62Z"/><path class="cls-1" d="m363.24,719.2c-4.3-.03-6.25-6.08-2.91-8.71,21.98-5.11,45.65-2.19,68.27-2.53,3.7.08,8.01-2.09,9.74,2.79.85,2.56-.58,5.41-3.14,6.26-9.94,2.02-20.5-.05-30.65.6-13.84-.8-27.55.45-41.3,1.58Z"/><path class="cls-1" d="m368.07,668.73c-6.8-3.22-2.47-10.9,4.19-9.93,17.95-1.49,35.94-1,53.62-1.63,4.07.18,8.94-1.72,12.48.82,3.23,2.68,1.28,8.58-2.98,8.64-22.64.9-44.95,1-67.31,2.1Z"/><path class="cls-1" d="m369.46,636.76c-2.68.31-5.11-2.02-5.26-4.62-.23-5.81,6.3-5.44,10.43-5.62,16.72-1.15,33.41-.33,50.12.17,3.8.03,7.59-.54,11.28-1.42,2.63-.61,5.31,1.34,5.81,3.92.94,5.33-5.02,6.3-8.97,6.79-21.07,1.45-42.29-1.51-63.4.79Z"/><path class="cls-1" d="m527.66,852.95c-10.79.22-9.08-9.16-10.56-16.85.14-4.64,6.65-6.3,9.09-2.39,1.47,2.81,1.39,6.25,1.92,9.35,19.31-.53,38.63-.58,57.8-3.44,16.34-.43,32.73-.3,49.07-.46,14.87-.46,29.72-1.52,44.58-2.25,6.4-.31,7.12,9.43.64,9.88-31.01,2.24-62.08,2.42-93.14,2.67-20.07,2.86-39.21,3.07-59.4,3.49Z"/><path class="cls-1" d="m680.71,841.16c-.4-1.08-1.26-1.93-2.1-2.69-32.8-2.37-65.26,1.25-98.01,1.73-11.82.21-23.69-.42-35.49.45-6.93,1.09-13.95.72-20.85.08-10.17-.09-7.35-13.07,3.13-9.72,9.79,1.41,19.53-1.12,29.35-.68,22.11.22,44.2-.56,66.28-1.68,14.57-.81,29.18-.8,43.77-.77,6.02.5,13.24-.82,18.28,3.08,11.59,9.17.63,19.1-4.36,10.2Z"/><path class="cls-1" d="m534.1,861.12c-.22-3.73-1.54-7.12-2.21-10.67-.4-5.05,6.38-7.75,9.26-3.38,1.46,3.38,3.8,12.69,1.92,15.86-2.21,3.6-8.38,2.41-8.97-1.82Z"/><path class="cls-1" d="m537.14,862.69c-.17-2.67,1.93-5.12,4.62-5.26,16.19-.86,32.37-1.86,48.55-2.79,17.76-1.02,35.52-2.04,53.28-3.06,16.02-.92,32.05-1.84,48.07-2.76,10.8-.62,21.59-1.24,32.38-1.86,1.24-.07,2.47-.14,3.71-.21,0,0,0,0,0,0,.03,0,.06,0,.08,0,.03,0,.05,0,.08,0,2.69-.16,5.09,1.92,5.26,4.62.17,2.68-1.93,5.1-4.62,5.26-10.59.65-21.18,1.21-31.77,1.82-13.9.8-27.8,1.6-41.7,2.39-18.24,1.05-36.48,2.09-54.72,3.14-17.17.99-34.33,1.97-51.5,2.96-2.16.13-4.31.26-6.47.37-.09,0-.18,0-.27,0-2.59,0-4.83-2.01-4.99-4.63Z"/><path class="cls-1" d="m722.79,857.06c-2.89-.16-4.65-2.71-4.75-5.41-10.12-5.33-22.34-4.72-33.48-6.25-4.7.55-8.92-4.49-5.42-8.49,4.17-3.62,10.75-.3,15.81-.47,8.65,1.62,18,1.14,25.86,5.51,6.76,1.45,11.25,14.49,1.99,15.12Z"/><path class="cls-1" d="m592.81,879.37c-9.17-.56-18.89.24-27.55-3.27-4.69-3.03-10.95-10.76-7.14-16.26,1.61-1.85,4.44-2.16,6.46-.81,1.91,1.15,2.45,3.25,2.88,5.21,3.87,6.75,13.93,3.94,20.55,5.06,46.06.48,92-5.11,138.02-6.7,3.04.16,6.63-.94,9.18,1.17,3.22,2.67,1.3,8.6-2.98,8.64-11.79.27-23.56.91-35.34,1.56-34.65,2.12-69.35,5.19-104.07,5.4Z"/><path class="cls-1" d="m726.98,867.81c.81-5.75-3.01-13.51.88-18.23,2.04-1.77,5.23-1.51,6.99.53,2.05,2.87,1,6.74,1.7,10.06-.06,3.47,1.38,7.65-.93,10.62-2.67,3.24-8.59,1.28-8.64-2.98Z"/><path class="cls-1" d="m727.03,854.3c-5.84-.28-6.12-9.2-.42-10.08,11.46-.69,23.03.25,34.51-.44,4.02-.22,8.03-.64,12.05-.86,6.43-.34,7.1,9.4.64,9.89-15.52,1.81-31.35.41-46.78,1.5Z"/><path class="cls-1" d="m781.7,867.06c-10.68-2.46-12.12-7.72-11.34-17.82.54-5.44-1.39-12.8,3.29-16.74,4.99-3.33,11.65,3.75,6.85,8.07-.28,5.08-.32,10.17-.21,15.25,3.05,1.93,8.21,2.26,7.23,7.33-.5,2.61-3.22,4.49-5.81,3.91Z"/><path class="cls-1" d="m787.85,868.41c-2.78-1.84-2.44-5.16-1.09-7.77.93-3.69,1.44-7.49,1.94-10.74-.57-4.9,5.4-8.44,8.87-4.45,2.67,3.79,0,8.78-.22,12.98-.53,4.87-3.01,13.69-9.5,9.99Z"/><path class="cls-1" d="m792.94,833.77c15.14.16,30.35-.19,45.45-1.47-.55-1.3-.45-2.68.07-3.95,4.71-10.04-7.79-8.53-4.81-18.41-4.59.12-10.99-.69-10.37-6.78-4.08,1.36-9.66,1.27-11.51-3.38-6.31,2.3-12.16,1.25-16.21-4.38-1.38,4.91-5.01,9.08-10.39,6.49-1.45,3.24-3.52,6.37-7.36,6.76,2.57,6.74,5.02,13.93-4.22,16.3.71,1.37,1.46,2.74,2.42,3.95,2.96.02,5.06,2.32,7.66,3.4,2.95,1.12,6.15,1.24,9.26,1.48Zm-11.72,35.52c-4.51-2.2-3.09-8.78,1.59-9.74,2.72-.6,5.16.84,7.94.39,14.62-.82,29.13-3.22,43.78-3.78,2.56-4.39.91-10.81,5.25-14.04-14.05,1.29-28.23,1.54-42.34,1.59-7.7.06-16.04-.24-22.48-4.99-3.26-.04-5.86-2.29-7.61-4.87-4.84-6.71-7.71-14.81,2.43-18.04-3.42-6.21-2.21-15.11,5.68-16.77,1.2-2.3,2.44-4.78,4.86-5.97,1.83-.89,3.9-1.26,5.93-1.04,3.42-12.22,12.65-8.9,18.91-.95,5.06-1.36,11.24-2.35,14.56,2.77,5.3-2.27,11.77.13,13.01,6.07,6.56-.35,12.14,5.39,10.66,11.97,6.87,4.55,7.22,13.55,4.09,20.51,6.42.89,7.54,10.21,4.48,14.78-1.29,1.63-3.5,2.21-5.51,2.82-1.94,13.41-6.38,17.22-19.9,16.61-15.07.28-30.35,4.93-45.33,2.69Z"/><path class="cls-1" d="m864.36,834.68c-2.79-.17-4.67-2.56-4.63-5.26.22-12.62,1.43-25.19,1.69-37.81.52-29.66,2.48-59.27,3.61-88.92.09-26.83.49-53.66,1.25-80.48.35-21.26,1.01-42.39,24.38-50.47-.02-1.84-.7-3.44-.75-5.21.38-6.47,10.31-5.79,9.89.63v-.61c-.02-.17-.04-.34-.07-.5,1.66,5.58,1.46,12.58-5.02,14.72-19.02,6.07-17.8,23.78-18.53,40.43-.19,13.04-.87,26.06-.8,39.1.12,38.48-2.16,76.87-3.67,115.31-.07,17.94-1.47,35.83-2.09,53.76.3,2.94-2.39,5.51-5.27,5.3Z"/><path class="cls-1" d="m850.68,836.53c-7.24-1.05-3.88-10.16-4.21-15.15.76-13.9.45-27.81.82-41.72.36-19.31,1.22-38.58,2.19-57.85.13-23.45-.45-46.9.46-70.34-.19-28.54,4.61-56.94,5.04-85.4,1.51-4.65,8.45-4.27,9.63.46-.21,10.07-.13,20.4-1.41,30.53-4.13,38.15-4.05,76.49-3.84,114.81-.1,23.99-2.03,47.94-2.31,71.93-.12,13.92-.12,27.85-.87,41.75-.18,4.29.6,11.14-5.51,10.96Z"/><path class="cls-1" d="m841.81,854.62c-3.24-2.67-1.28-8.6,2.98-8.64,6.23.1,12.43-.4,18.63-.92.3-1.44.54-2.89.75-4.34-5.35-1.43-18.68,1.14-18.5-6.72,1.55-8.37,12.38-2.87,18.08-3.23,5.96-.19,11.89,2.55,10.45,9.48-.9,4.55-.51,10.37-4.54,13.45-3.36,1.68-25.46,3.55-27.85.92Z"/><path class="cls-1" d="m845.55,702.19c.17-19.36-4.89-38.31-4.94-57.7-1.19-17.78-2.96-36.5-10.71-52.75-3.11-5.22-7.37-9.67-11.96-13.6-2.69-1.97-5.12-2.74-6.84-5.59-6-9.14,6.15-15.39,8.3-5.74,22.93,15.75,26.32,35.93,29.91,61.99,1.84,16.56,1.42,33.35,4.47,49.79.11,6.1,5.72,27.97-2.98,28.22-2.58.17-5.24-1.92-5.26-4.62Z"/><path class="cls-1" d="m803.89,588.96c-6.17-1.34-4.83-10.22,1.45-10.01,6.03.25,23.25-5.27,23.34,4.16-.27,4.37-4.79,4.97-8.29,4.58-5.52-.08-11.03,1.04-16.49,1.27Z"/><path class="cls-1" d="m804.31,745.06c-8.28-.14-3.22-19.18-3.83-24.93,1.04-23.44.12-46.85.22-70.19-.08-17.35.19-34.89-.16-52.12.07-5.96-3.26-21.24,7.23-17.72,2.29,1.11,3.42,4.13,2.33,6.48-.06,5.29.41,10.57.44,15.86.19,24.05-.18,48.1.25,72.15.34,21.69-.22,43.35-1.21,65.01.4,3-2.31,5.67-5.26,5.46Z"/><path class="cls-1" d="m745.03,754.22c-2.95-.36-5.39-2.9-4.78-6.06.53-2.9,3.46-4.33,6.2-4.11,7.57-.54,15.14-.92,22.74-.8,9.04.33,17.89-1.75,26.86-2.36,17.8-.17,34.8-.59,52.39-2.13,6.41-.36,7.12,9.39.64,9.88-19.43,2.03-38.96,1.35-58.39,2.68-15.08,2.83-30.54,1.05-45.66,2.89Z"/><path class="cls-1" d="m748.38,834.18c-4-.66-4.58-5.34-3.38-8.42-.65-20.36,1.3-40.63,2-60.97-10.25.4-12.66-10.51-9.42-18.32,2.68-4.25,9.82-2.13,9.4,2.98-.37,1.79-1.09,3.44-.51,5.31,10.57.66,11.56,3.96,10.25,13.77-.2,9.4-.76,18.76-1.47,28.13-.47,7.67-.46,16.41-.44,23.86.07,4.97.98,14.5-6.43,13.66Z"/><path class="cls-1" d="m764.8,811.07c-2.67-.16-4.83-2.57-4.63-5.26.53-7.65.62-15.31.78-22.98.55-8.39-1.13-17.46,1.44-25.5,2.7-4.15,9.52-1.85,9.09,3.08-1.22,12.13-.26,24.4-.97,36.57-.58,4.84,1.51,14.05-5.71,14.08Z"/><path class="cls-1" d="m778.64,796.8c-6.86-.8-3.96-8.64-3.8-13.25.62-8.09,1.09-16.18,1.06-24.29.48-6.7,10.69-5.65,9.89,1.07.01,7.9-.45,15.79-1.05,23.67-.75,4.53.54,12.89-6.1,12.8Z"/><path class="cls-1" d="m796.09,789.41c-2.7-.12-4.78-2.6-4.63-5.26v-25.07c.02-4.31,6.07-6.26,8.71-2.92.87,1.02,1.18,2.24,1.18,3.55v25.07c0,2.7-2.69,4.79-5.26,4.63Z"/><path class="cls-1" d="m809.89,795.08c-6.29-.64-4.31-8.01-4.53-12.39.05-7.7-.23-15.41.12-23.1-.58-7.39,10.42-8.73,10.48-1-1.83,10.37-.16,21.28-.82,31.86-.05,2.7-2.65,4.79-5.26,4.62Z"/><path class="cls-1" d="m825.07,800.27c-5.57-.46-4.6-6.52-4.38-10.52.03-5.69-.1-11.38-.36-17.06.43-5.25-2.55-16.03.28-19.79,2.55-3.05,7.91-1.56,8.56,2.35.87,10.24,1.32,20.57,1.41,30.86-.33,4.86,1.75,14.12-5.51,14.16Z"/><path class="cls-1" d="m834.83,809.5c-6.88-.85-4.03-9.13-4.11-13.83.36-12.91,1.38-25.79,1.91-38.7.43-12.01,15.88-4.21,9.67,3.79-.32,12.05-1.42,24.06-1.72,36.1-.61,4.56,1.03,12.73-5.75,12.63Z"/><path class="cls-1" d="m716.69,841.96c-3.78-1.83-2.78-5.91-1.42-9.01,1.65-5.97,2.26-12.15,2.23-18.33-9.31-1.77-18.96-.32-28.36.17-3.61,1.88-7.9-1.62-7.08-5.5,2.07-6.92,12.9-4.06,18.5-5.1,6.46.04,25.38-2.31,26.68,6.15.15,6.73.76,35.76-10.55,31.62Z"/><path class="cls-1" d="m679.65,813.66c-.18-.58-.25-1.2-.25-1.24.05.43.11.83.25,1.24Zm1.61,17.9c-4.38-4.06-2.16-11.31-2.39-16.66-.16-3.77,1.83-8.63,6.38-7.72,7.12,1.95,2.27,10.68,3.28,15.88.01,1.16.06,2.32.37,3.45,1.03,4.15-4.21,7.56-7.63,5.05Z"/><path class="cls-1" d="m708.46,804.62c-.96-6.83,1.95-17.82,10.64-16.87,7.2.93,29.63-2.4,28.85,8.12,2.4,10.74-10.04,12.48-9.79,2.67-6.31-.55-12.64-.83-18.96-.88-.22.6-.41,1.21-.59,1.83-.12.5-.23,1-.33,1.51,3.46,6.61-7.78,10.37-9.81,3.63Z"/><path class="cls-1" d="m727.02,811.22c-6.72,1.26-9.81-8.01-2.82-9.9,2.63-.43,5.28.23,7.94.04,5.67.84,17.28-3.53,17.79,5.11-.13,3.06-3.11,5.01-6,4.62-5.64.05-11.26.23-16.9.13Z"/><path class="cls-1" d="m744.06,829.21c.35-6.09-5.7-23.37,3.94-23.51,3.47.15,5.06,3.63,4.63,6.72-.07,5.42.88,10.76,1.32,16.15.47,6.38-9.52,7.05-9.88.64Z"/><path class="cls-1" d="m733.08,844.11c-1.52-10.4.32-21.4.18-31.98-.73-5.27,4.62-10.05,8.95-5.59.98,1.14,1.33,2.6,1.11,3.98-.48,5.38-.4,10.79-.58,16.18-.12,4.66-.33,9.32-.39,13.98.6,2.22-.55,4.73-2.65,5.74-2.42,1.18-5.37.11-6.61-2.31Z"/><path class="cls-1" d="m734.01,845.48c-1.55-7.39,13.89-9.1,14.27-1.72.3,4.49-4.28,5.6-7.88,5.54-2.78.94-5.84-.99-6.39-3.82Z"/><path class="cls-1" d="m750.57,833.29c-4.41-.62-5.82-6.67-2.03-9.09,5.18-1.95,11.27-.76,16.76-1.59,6.45-.35,7.09,9.4.64,9.89-5.12.26-10.29.69-15.37.8Z"/><path class="cls-1" d="m709.33,791.98c-9.71-4.97-10.19-21.89-.33-26.9-.86-7.77,5.63-17.28,14.19-14.31,6.61-4.56,18.52-7.65,22.85,1.36,2.83,5.76-6.18,10.1-8.93,4.3-6.01-1.43-10.95,7.43-17.02,3.76-.65,1.09-1.22,2.35-1.24,3.63.2,1.79,2.1,2.77,2.02,4.71.32,3.2-2.92,5.85-5.96,5.15,0,0,0,.02,0,.02-4.15-.05-3.96,7.53-1.18,9.39,0,0,0,0,0,0-.04-.03-.07-.06-.11-.08.04.03.08.05.12.08,11.31-1.64,6.77,15.02-4.41,8.91Z"/><path class="cls-1" d="m478.58,848.42c-.25-5.7,6.12-5.52,10.22-5.49,5.33-.04,10.67-.02,16-.03,1.37-5.07,1.44-10.09,1.92-15.27-8.07-.73-16.8,1.37-24.54-.99-4.55-3-1.27-9.79,3.81-9.33,5.39.8,10.91.23,16.39.39,5.66.04,15.9-1.24,14.52,7.4-1.38,8,.12,20.54-5.56,26.65-6.24,2.27-14.11.56-20.58,1.06-4.34-.11-11.55,1.89-12.18-4.39Z"/><path class="cls-1" d="m474.76,850.5c-1.4-7.67-1.15-15.62-1.13-23.41.03-2.27-.05-4.57,1.15-6.58,2.19-3.16,6.34-4.61,10.06-4,6.88.52,5.51,10.99-1.32,9.84-.17,7.08,0,14.18.7,21.22,1.79,6.01-7.55,8.93-9.45,2.93Z"/><path class="cls-1" d="m509.01,823.65c-3.95-1.92-2.57-6-1.4-9.2.31-2.15-.78-4.29.32-6.34.35-1.5,3.4-2.36,2.23-3.93-5.27-5.09-8.07-6.87-3.2-13.8.84-4.32-6.89-4.38-8.69-1.79,1.43,6.27-8,8.82-9.82,2.61-1.14.45-2.29,1.02-3.12,1.94,1.9,6.78-8.14,9.18-9.79,2.39-2.3-8.4,8.18-15.61,15.76-14.09,10.01-10.65,31.59-1.02,24.26,14.09,5.18,4.01,6.66,11.72,1.94,16.69.5,4.92-1.91,14.18-8.51,11.42Z"/><path class="cls-1" d="m519.87,833.94c-1.32-.08-2.58-.72-3.44-1.72-.87-1.02-1.19-2.23-1.18-3.55v-.04s0-.01,0-.02c.04-8.25.12-16.5.18-24.75.08-11.44.16-22.88.25-34.31.13-16.53.24-33.06.37-49.58.12-15.96.23-31.91.35-47.86.13-17.04.25-34.08.38-51.13.11-15.11.19-30.23.34-45.34,0-.06,0-.12,0-.18,0-.02,0-.04,0-.06,0-.04,0-.08,0-.12,0-.09,0-.18,0-.27.02-2.7,2.67-4.79,5.26-4.63,1.32.09,2.58.72,3.44,1.72.87,1.01,1.19,2.23,1.18,3.54,0,.09,0,.18,0,.27,0,.04,0,.08,0,.11-.17,17.41-.26,34.83-.39,52.25-.13,17.27-.26,34.53-.38,51.8-.12,15.8-.23,31.59-.35,47.39-.13,16.79-.25,33.58-.37,50.36-.08,10.02-.15,20.03-.22,30.04-.06,7.14-.13,14.29-.16,21.44-.02,2.6-2.49,4.64-4.98,4.64-.1,0-.19,0-.29,0Z"/><path class="cls-1" d="m576.45,580.91c-8.44-.15-17.12-1.26-25.26-1.82-8.71.16-17.42.46-26.08-.67-6.3,3.1-10.55-7.56-3.8-9.66,5.88-.96,12.06,1,17.99.63,4.7-.03,9.41-.3,14.11-.15,20.33,2.43,40.85,2.24,61.28,1.28,6.07-.29,12.13-.47,18.2-.38,4.41-.1,11.81.05,10.84,6.31-1.39,6.04-8.28,3.14-12.64,3.57-18.21.07-36.42,1.7-54.64.88Z"/><path class="cls-1" d="m638.26,827.56c-.22-12.25-.44-24.5-.66-36.76-.31-17.46-.63-34.93-.94-52.39-.3-17-.6-34-.91-51.01-.3-16.33-.59-32.67-.88-49-.27-14.58-.53-29.15-.79-43.72-.12-6.62-.15-13.24-.35-19.86-.08-2.7,1.91-5.07,4.66-5.23,2.64-.15,5.15,1.96,5.23,4.66.24,7.77.28,15.56.42,23.34.12,6.71.24,13.43.36,20.14.3,16.66.59,33.32.89,49.99.29,15.93.57,31.85.86,47.78.31,17.33.62,34.67.93,52.01.3,16.71.6,33.42.9,50.13.06,3.08.11,6.16.17,9.23,0,.02,0,.04,0,.06v.05c.04,2.7-1.89,5.07-4.66,5.23-.09,0-.18,0-.26,0-2.52,0-4.92-2.06-4.97-4.67Z"/><path class="cls-1" d="m582.78,601.86c-7.57.18-15.85-1.1-23.26-1.28-5.81.16-11.6-.27-17.39-.75-3.05.8-6.33-1.47-6.6-4.65-.14-6.75,7.86-5.3,12.35-4.84,6.31.59,12.66.15,18.98.69,17.41,1.84,34.94-.17,52.39-.27,6.44-.31,7.1,9.43.64,9.89-12.37.52-24.76.39-37.12,1.2Z"/><path class="cls-1" d="m612.94,802.47c0-.12,0-.24,0-.36,0-.07,0-.13,0-.19,0-.06,0-.13,0-.19-.04-10.33-.08-20.66-.12-30.99-.07-18.5-.15-37.01-.21-55.51-.07-17.55-.14-35.1-.2-52.66-.05-13.46-.1-26.92-.15-40.38-.03-8.91-.1-17.83-.1-26.74,0-2.7,2.69-4.79,5.26-4.63,1.32.08,2.58.71,3.44,1.72.87,1.02,1.18,2.23,1.18,2.91.05,12.01.09,24.02.14,36.03.06,14.92.11,29.84.17,44.76.07,17.72.14,35.44.2,53.16.07,17.59.14,35.17.2,52.75.02,6.54.07,13.08.08,19.62,0,.02,0,.04,0,.06h0c0,.21,0,.42,0,.63,0,2.45-2.29,4.47-4.62,4.63-.09,0-.19,0-.29,0-2.48,0-4.97-2.03-4.98-4.63Z"/><path class="cls-1" d="m536.69,829.14c-2.7-.14-4.78-2.59-4.63-5.26,0-6.07.06-12.14.12-18.22-.01-19.21.39-38.41.91-57.61.63-31.91.02-64.55-.24-96.35.09-13.69-.75-27.38-.6-41.07.37-5.03-.67-10.59,1.49-15.25,2.16-3.37,7.59-2.61,8.81,1.2.27,6.35-.87,12.95-.44,19.44.61,24.2.66,48.41,1.09,72.61.43,34.84-.6,69.64-1.03,104.47-.06,8.72-.19,17.43-.21,26.15.27,4.08.35,10.13-5.26,9.89Z"/><path class="cls-1" d="m576.66,807.55c-10.37-.42-20.75-.25-31.13-.28-4.3-.03-6.25-6.08-2.91-8.7,1.02-.88,2.23-1.18,3.54-1.19,8.47.04,16.94-.1,25.4.1,11.74.49,23.49-.11,35.23-.02,5.04.54,14.66-2.46,14.79,5.26-1.01,7.23-10.34,3.92-15.36,4.63-9.85-.03-19.71.29-29.57.2Z"/><path class="cls-1" d="m539.1,832.36c-2.7,0-4.79-2.69-4.63-5.26.14-2.7,2.6-4.78,5.26-4.63,7.12,0,14.23,0,21.34,0,20.53-.45,41.17.72,61.4-3.41,6.42-.39,7.1,9.35.64,9.89-27.66,5.11-56.02,2.85-84.02,3.41Z"/><path class="cls-1" d="m615.48,827.44c0-8.84-2.33-17.59-1.22-26.44.32-6.41,10.44-5.75,9.89.63-2.47,7.23,6.32,29.59-3.41,30.43-2.6.17-5.22-1.92-5.26-4.62Z"/><path class="cls-1" d="m539.68,708.14c-4.2-9.86,10.38-7.75,16.09-8.42,10.01-.49,20.02-1.2,30.05-1.19,6.24.02,12.47.6,18.72.57,3.61.37,7.92-1.24,11,1.14,3.25,2.67,1.28,8.58-2.98,8.63-16.19.33-32.36-1.14-48.54.35-4.97.28-9.94.46-14.91.78-3.24,0-7.35,1.52-9.43-1.87Z"/><path class="cls-1" d="m559.37,693.2c-1.77-30.51-1.3-61.1-2.22-91.63.27-6.13,9.71-5.92,9.89,0,.76,26.63.64,53.28,1.59,79.91-.46,5.3,3.67,15.09-3.99,16.34-2.64.18-5.14-1.93-5.26-4.62Z"/><path class="cls-1" d="m592.45,702.65c-2.7-.13-4.78-2.6-4.63-5.26,0-7.62,0-15.24,0-22.86-.05-9.56-.07-19.13-.36-28.69-1.02-15.55-1.49-31.36-.33-46.88,1.74-5.39,10.2-3.71,9.64,1.98-1.25,24.37,1.28,49.22.93,73.32,0,7.92,0,15.83,0,23.75,0,2.7-2.69,4.79-5.26,4.63Z"/><path class="cls-1" d="m558.48,699.68c.08-1.33.71-2.58,1.72-3.45,1.02-.87,2.23-1.18,3.54-1.18,2.7,0,4.79,2.69,4.63,5.26-.08,1.33-.71,2.58-1.72,3.45-1.02.87-2.23,1.18-3.54,1.18-2.7,0-4.79-2.69-4.63-5.26Z"/><path class="cls-1" d="m544.88,669.32c-2.64-.09-5.61.39-7.58-1.83-2.67-2.88-.51-8.08,3.44-8.17,23.15.67,46.04-2.32,69.17-.82,1.6.03,3.19.07,4.78.1,6.42.43,5.85,10.18-.63,9.89-23.09-1.34-46.1.8-69.19.83Z"/><path class="cls-1" d="m615.03,637.91c-24.11-.38-48.76-2.63-72.72-1.15-3.8-.12-5.95-4.89-3.77-7.91,3.07-4.68,22.65-1.75,28.88-2.35,16.08.58,32.16.98,48.24,1.53,6.37.27,5.79,10.4-.63,9.89Z"/><path class="cls-1" d="m628.41,738.95c-4.41-3.73-1.72-10.74-3.09-15.82.32-9.5-5.1-29.88,2.18-36.4,14.08-7.51,18.39,7.74,6.5,8.11-.77,11.69,1.36,23.4,1.77,35.08,8.29,4.51-.91,13.09-7.35,9.03Z"/><path class="cls-1" d="m690.5,726.23c-2.7-.13-4.78-2.59-4.63-5.26,0-6.18-.09-12.36.07-18.53.34-19.5.17-39.01.13-58.5.15-20.3.54-40.58.56-60.88-.16-7.14,10.84-6.69,9.88.52-.25,34.73-.57,69.53-.55,104.22.01,10.49-.22,20.97-.18,31.46.6,3.44-1.4,7.24-5.26,6.97Z"/><path class="cls-1" d="m782.75,589.78c-10.83-2.84-21.83-1.33-32.85-1.23-10.22-.48-20.37-1.43-30.6-.49-6.7.52-13.42.44-20.13.44-4.51.47-10.42.64-9.75-5.73,1.51-7.02,14.73-3.26,19.83-4.17,14.45-1.03,28.8-.85,43.24.08,6.82.12,39.55-3.83,36.34,7.92-.84,2.55-3.6,3.86-6.08,3.18Z"/><path class="cls-1" d="m780.18,725.01c-8.35-1.39-3.11-14.24-3.79-20.08.31-9.76.89-19.5,1.25-29.26.27-18.79,1.32-37.57,1.9-56.34.45-11.42-1.75-23.26.14-34.5,2.74-5.55,11.4-2.02,9.25,3.89.6,20.99.38,41.92-.64,62.89-.78,19.45-1.08,38.91-2.31,58.33-1.11,5.1,1.94,14.88-5.8,15.06Z"/><path class="cls-1" d="m704.75,726.01c-5.13-.35-4.78-5.96-4.63-9.78-.01-5.43-.07-10.87-.1-16.3-.01-14.84-.11-29.68.28-44.52.08-18.53.11-37.11,1.23-55.6,1.1-6.05,10.35-5.29,10.02,1.05-2.09,32.91-1.38,66.84-1.65,99.76.05,5.36.11,10.71.1,16.07.37,3.96.04,9.58-5.26,9.32Z"/><path class="cls-1" d="m746.12,730.17c-17.95-1.25-35.97-1.04-53.91-2.46-6.92,3.1-10.36-8.39-3.03-9.92,16.75.96,33.68,1.2,50.48,2.16,11.67.82,23.34.17,34.99-.47,2.7-.12,5.08,1.89,5.26,4.62.17,2.65-1.92,5.15-4.62,5.26-9.72.51-19.44,1.11-29.17.8Z"/><path class="cls-1" d="m766.29,606.18c-16.98-3.61-34.97-3.91-52.25-2.33-7.6,9.64-17.02-8.79-1.76-9.76,10.16-1.5,20.51-.97,30.74-.66,9.38.99,19.6.37,28.32,4.26,5.14,3.32.18,11.46-5.13,8.44,0,0,.09.05.09.05Z"/><path class="cls-1" d="m763.07,724.19c-.91-21.31-1.39-42.68-.31-64.01,1.61-17.93,1.68-35.82.38-53.75-1.55-11.84,15.31-9.77,9.9.07,2.54,25.03-.87,49.98-.94,75.03-.28,14.34.27,27.87.85,42.02.51,6.38-9.62,7.06-9.89.64Z"/><path class="cls-1" d="m687.84,747.29c-3.88-.6-5.15-4.72-5.18-8.14-.17-4.88-1.54-9.93-.57-14.76,1.82-5.67,10.56-3.38,10.14,2.24-.99,3.5.07,7.16.19,10.77,20.76-2.39,41.58-1.25,62.4-2.07,7.91-.85,15.87-1.04,23.81-1.02,3.01-.43,6.15,1.34,6.34,4.59.17,2.64-1.93,5.16-4.62,5.26-15.79-.18-31.63,2.03-47.34,1.42-15.11-.94-30.12,1.75-45.18,1.7Z"/><path class="cls-1" d="m780.41,747.61c-4.02-.75-4.22-4.85-3.8-8.15.38-6.15-1.47-13.36,1.91-18.83,4.1-4.8,12.31,1.49,8.1,6.55-1.53,6.13,3.82,20.85-6.21,20.43Z"/><path class="cls-1" d="m708.4,671.41c-4.4-1.37-4.42-8.06.01-9.4,9.82-1.79,19.82-2.37,29.8-2.22,7.95.03,15.86.84,23.81.92,4.3.06,6.25,6.07,2.91,8.71-1.01.87-2.23,1.19-3.54,1.18-8-.08-15.98-.89-23.35-.92-9.94-.61-19.87,1.5-29.63,1.73Z"/><path class="cls-1" d="m726.88,724.39c-8.31-.75-3.19-16.64-3.97-22.45.46-9.85.43-19.71.57-29.56.65-19.67-.03-38.9-.46-58.46.53-5.03-1.94-11.39,1.66-15.51,3.7-3.25,9.45.7,8.05,5.36.12,15.47.93,30.92.88,46.39-.08,19.67-.23,39.37-1.13,59.03-1.04,5.14,2.25,15.02-5.6,15.21Z"/><path class="cls-1" d="m744.33,719.16c-.75-39.1,1.11-78.49-.25-117.52,1.31-6.21,10.26-5.07,10.16,1.32.43,28.02-.18,56.07.04,84.1.33,10.49-.99,20.98-.07,31.46.48,6.35-9.5,7.08-9.88.64Z"/><path class="cls-1" d="m743.5,634.53c-10.02-.64-20.06-.42-30.1-.45-3.87.33-9.3.11-9.27-5.02-.01-2.79,2.52-5.04,5.27-4.87,8.02,0,16.03-.01,24.05,0,11.51.41,23.04,1.02,34.56.3,2.69-.15,5.08,1.92,5.26,4.62.18,2.68-1.93,5.11-4.62,5.26-8.36.48-16.78.41-25.15.15Z"/><path class="cls-1" d="m492.59,623.24c2.02-.28,4.02-.54,6.07-.47,1.55.06,3.1.26,4.65.35-.7-2.68-2.37-5.6-5.32-6.02-.44.17-.9.28-1.39.34-.33.35-.64.72-.94,1.09-1.11,1.51-2.11,3.1-3.07,4.71Zm-3.47,10.15c-10.19-1.01-9.31-10.06-4.22-16.52,2.78-4.54,6.8-10.95,13.03-8.99,11.97-2.76,22.61,20.88,8.91,24.91-5.91.32-11.8-.16-17.72.6Z"/><path class="cls-1" d="m490.78,654.7c-6.57-3.27-7.17-22.03-2.79-26.89,4.59-4.08,11.42,1.77,7.56,6.73-2.63,22.08,10.08,9.8,6.3-3.99-1.21-6.34,8.38-8.23,9.72-1.9,3.75,13.55-4.06,33.75-20.8,26.05Z"/><path class="cls-1" d="m624.89,447.94c-6.41-.32-5.75-10.42.63-9.89,5.62.79,11.28.61,16.88-.22,2.93-36.41,2.95-73.16,3.19-109.71-5.8.13-11.6.08-17.4.31-4.16-.33-9.71,2.16-12.62-1.89-2.6-3.89,1.37-8.45,5.62-7.74,10.25-.02,20.85-1.53,30.96-.03,6.19,3.81,2.28,14.08,3.26,20.27.36,29.58-1.47,59.11-2.04,88.66-.91,6.01.41,13.9-4.2,18.45-7.55,2.94-16.3,2.48-24.28,1.78Z"/><path class="cls-1" d="m620.68,445.43c-2.69-.13-4.79-2.6-4.62-5.26,0-7.51.37-15.01.37-22.52,0-11.32,0-22.63,0-33.96.15-15.67-.89-31.29-1.57-46.93.16-5.01-2.14-14.37,5.36-14.49,5.42.32,4.55,6.14,4.41,9.72.48,16.99,1.88,33.96,1.68,50.98-.04,14.01.14,28.02-.06,42.03-1.24,5.75,3,20.69-5.56,20.42Z"/><path class="cls-1" d="m506.76,439c-6.64-.7-8.42-7.39-8.57-13.08-1.29-14.73-.21-29.53-.11-44.29,1.11-18.73,1.12-37.51,2.1-56.21,1.65-7.4,15.1-6.47,21.18-8.05,5.9-.42,18.05-3.87,18.8,4.9-.41,4.73-4.92,5.03-8.56,4.07-7.42.38-14.72,1.43-21.92,3.16.27,33.22-4.32,66.61-1.08,99.75,6.57.95,13.16-.74,19.74-.83,2.69-.19,5.09,1.94,5.26,4.62.18,6.3-7.14,5.26-11.45,5.72-5.11.56-10.28,1.15-15.38.24Z"/><path class="cls-1" d="m531.04,436.13c-2.66-.16-4.84-2.57-4.63-5.26.68-8.54,1.09-17.12,1.12-25.68-.13-23.56.03-47.1,1.16-70.63,1.04-5.52-1.92-15.13,4.87-17.35,1.9-.37,4.08.45,5.09,2.15,1.06,1.8,1.19,4.29.4,6.2-.36,4.51-.45,9.04-.61,13.55-.7,15.99-1.2,31.99-1.04,48,.09,14.81.14,29.62-1.12,44.39-.2,2.69-2.57,4.81-5.26,4.62Z"/><path class="cls-1" d="m509.39,435.2c.27-27.39.38-54.79.4-82.18.04-7.85.27-15.71.53-23.56.15-2.45-.08-5.17,1.58-7.19,3.74-4.6,11.41.87,8.37,5.91-1.05,28.83-.5,57.69-.77,86.53-.02,6.72-.21,13.43-.22,20.14.11,6.18-9.6,6.6-9.88.35Z"/><path class="cls-1" d="m636.24,442.16c-2.79-.17-4.67-2.56-4.63-5.26.03-6.81,0-13.63.18-20.44.38-15.16.24-30.32.9-45.47.19-10.07.37-20.14.34-30.21.74-6.33-1.87-14.85,2.03-20.14,3.23-2.86,8.6-.23,8.24,4.07-.75,30.46-.95,61.04-1.6,91.55-.15,6.94-.17,13.88-.19,20.82.22,2.87-2.49,5.28-5.27,5.09Z"/><path class="cls-1" d="m616.09,331.2c-27.69-2.54-55.58-4.29-83.16-6.68-4.1-1.17-4.53-7.51-.58-9.16,3.07-1.11,6.33-.03,9.46.25,25.01,1,50.03,3.86,74.91,5.7,6.42.48,5.84,10.24-.63,9.89Z"/><path class="cls-1" d="m596.48,438.89c-14.9.46-29.7-1.2-44.56-1.86-7.09-.11-14.18,0-21.27-.03-2.8.26-5.15-2.34-5.11-5.02.91-8.12,12.48-3.85,18.03-4.86,6.99-.02,14.01.01,20.98.72,17.79,1.41,35.67,1.53,53.5,1.02,2.69-.11,5.08,1.89,5.26,4.62.17,2.65-1.93,5.16-4.62,5.26-7.4.43-14.8.25-22.21.16Z"/><path class="cls-1" d="m611.54,454.46c-28.22-.75-56.27-.04-84.43-1.2-4.48.68-9.59-.94-9.9-6.14.02-3.71-1.9-7.64-.66-11.19,1.52-3.17,5.93-3.67,8.21-1.04,1.85,2.33,1.53,5.69,1.99,8.48,29.41,1.12,58.45.51,87.71,1.21,1.48-.26,3.95.45,4.72-1.11,1.15-2.44,4.24-3.44,6.63-2.26,4.89,2.5,2.3,8.83-1.47,11.09-3.71,2.58-8.49,2.13-12.79,2.17Z"/><path class="cls-1" d="m529.19,323.37c-6.8-1.75-3.03-12.11-3.95-17.36-1.82-3.34.87-8.11,4.62-8.4,7.87.18,4.65,10.17,5.27,15.29.34,4.35.25,11.44-5.94,10.46Z"/><path class="cls-1" d="m619.6,322.41c-.14-2.83-.08-5.66-.06-8.49,0-.48,0-.95-.01-1.43-28.5-1.88-56.84-5.57-85.36-7.49-10.36,4.4-12.03-13.07,1.18-9.8,21.57,1.03,42.91,4.3,64.42,5.82,8.99,1.46,19.41-.66,27.5,3.93,3.94,4.53,1.46,11.35,2.23,16.83.44,6.39-9.52,7.05-9.89.64Z"/><path class="cls-1" d="m570.37,430.03c-.12-33.92.39-67.86-.69-101.73-1.62-11.54,14.13-9.42,9.9.05,1.08,32.91.58,65.4.68,98.19.33,3.57-.34,7.79-4.62,8.11-2.6.17-5.2-1.93-5.26-4.62Z"/><path class="cls-1" d="m572.28,388.48c-6.07-.02-12.14-.2-18.21-.47-5.81-.27-11.61-.94-17.43-1.05-6.33,3.74-11.77-7.04-4.46-9.51,20.5-.75,41.32,2.95,61.9.18,5.38-.47,10.81-.44,16.21-.43,3.78-.21,9.34-.51,9.66,4.58-.38,8.66-12.49,4.27-18.14,5.38-9.85.41-19.65,1.68-29.53,1.33Z"/><path class="cls-1" d="m227.48,607.69c-2.6-.16-4.93-2.58-4.63-5.26.13-1.17.24-2.34.32-3.52-7.56.9-14.93,2.55-22.29,4.46-3.49.34-7.52,3.39-10.35-.08-5.48-9.16,8.26-9.16,13.78-10.93,6.95-2.03,14.17-2.7,21.3-3.81,4.49-1.02,8.25,2.81,7.6,7.26-.26,4.36.53,12.05-5.75,11.87Z"/><path class="cls-1" d="m189.73,616.49c-2.42-4.02-4.58-16.37,1.27-18.27,3.3-1.25,6.89,1.56,6.63,5-.45,1.71-.28,3.41-.08,5.15,6.79-.71,36.12-12.21,36.73-1.47.18,2.71-1.93,5.05-4.62,5.26-6.31.46-13.19,1.57-19.08,3.09-6.58.92-15.09,6.51-20.85,1.24Z"/><path class="cls-1" d="m188.68,730.59c-.33-20.76,1.69-41.46,1.05-62.22.74-18.12-1.94-36.56.12-54.51,2.17-6.05,11.42-3.01,9.39,3.15-.19,34.02,1.25,68.11-.66,102.16-.86,5.24,2.78,14.86-4.64,16.04-2.67.18-5.09-1.92-5.26-4.62Z"/><path class="cls-1" d="m218.21,758.95c-5.28-.31-10.23-2.09-15.33-2.96-5.45-.82-13.26.12-16.09-5.73-11.48-32.06,13.88-24.85,7.15-14.54.01,3.16.28,6.42,1.38,9.4,7.46.82,14.81,2.27,21.99,3.79,3.5.11,8.08.35,8.35,4.85.28,4.08-3.95,5.94-7.45,5.19Z"/><path class="cls-1" d="m224.7,757.46c-4.78-.33-4.9-5.28-4.49-8.97.58-5.32-1.4-14.21,5.3-16.07,4.18-1.05,7.59,4.3,5.01,7.69-1.47,5.53,2.67,16.89-5.82,17.35Z"/><path class="cls-1" d="m225.7,740.79c-7.64-1.45-28.89-.15-33.53-5.41-3.4-5.15,4.41-10.62,8.58-6.86,5.42.82,10.88,1.33,16.35,1.7,4.13.7,9.38-.66,12.68,2.4,2.86,3.06.12,8.68-4.08,8.17Z"/><path class="cls-1" d="m228.59,743.02c-7.8-.76-3.5-14.3-4.57-19.81,0-23.84,0-47.68,0-71.53.12-15.88,0-31.78.47-47.66-.11-5.93,8.78-7.45,10.03-1.37-1.17,39.62-.39,79.44-.61,119.13-1.02,5.91,3.55,21.21-5.32,21.24Z"/><path class="cls-1" d="m225.37,678.91c-6.15,0-12.26-.86-18.41-.93-4.21.03-10.9.98-10.97-5.02-.18-9.29,23.58-2.92,30.02-3.93,6.39.27,5.77,10.39-.63,9.89Z"/><path class="cls-1" d="m203.47,667.38c-.64-9.26-.33-18.55-.72-27.82.15-9.07-1.77-18.6.32-27.46,2.21-4.87,9.9-2.95,9.47,2.4-.43,1.96-.46,3.96-.45,5.96.57,15.43.63,30.87,1.26,46.28.47,6.37-9.51,7.06-9.89.64Z"/><path class="cls-1" d="m203.53,728.73c-.78-12.98-.85-25.99-.92-39,.12-3.84-.18-7.76.47-11.55.73-3.89,5.83-5.56,8.6-2.64,1.7,1.67,2.15,4.22.95,6.23-.38,10.57.07,21.16.14,31.73-1.11,5.93,4.47,18.37-3.98,19.85-2.63.17-5.16-1.93-5.26-4.62Z"/><path class="cls-1" d="m359.93,859.74c-6.45-2.73-2.69-11.1,3.72-9.67,4.68.78,11.34-2.8,13.56,2.92,1.85,9.18-11.78,6.93-17.28,6.75Z"/></svg>